<?xml version="1.0" standalone="no"?>
<!DOCTYPE svg PUBLIC "-//W3C//DTD SVG 20010904//EN"
 "http://www.w3.org/TR/2001/REC-SVG-20010904/DTD/svg10.dtd">
<svg version="1.0" xmlns="http://www.w3.org/2000/svg"
 width="512.000000pt" height="512.000000pt" viewBox="0 0 512.000000 512.000000"
 preserveAspectRatio="xMidYMid meet">
<metadata>
Created by potrace 1.14, written by Peter Selinger 2001-2017
</metadata>
<g transform="translate(0.000000,512.000000) scale(0.100000,-0.100000)"
fill="#000000" stroke="none">
<path d="M3064 5102 c-70 -25 -148 -77 -188 -126 -67 -82 -96 -163 -111 -311
-4 -33 -8 -67 -11 -75 -3 -13 -33 -15 -191 -15 -202 0 -278 -11 -430 -61 -449
-149 -798 -540 -892 -999 -11 -51 -22 -98 -25 -103 -3 -6 -21 -13 -39 -16 -45
-8 -115 -70 -138 -120 -16 -36 -19 -69 -19 -247 0 -195 1 -206 21 -228 29 -31
61 -41 130 -41 45 0 59 -3 59 -14 0 -8 79 -612 175 -1342 109 -823 182 -1338
191 -1355 8 -16 23 -33 33 -39 13 -7 327 -10 936 -10 l917 0 27 28 c15 15 31
43 34 62 4 19 83 618 177 1330 93 712 172 1305 175 1318 5 19 12 22 60 22 64
0 95 11 124 41 20 22 21 33 21 228 0 178 -3 211 -19 247 -23 50 -93 112 -138
120 -18 3 -36 10 -39 16 -3 5 -14 52 -25 103 -64 312 -255 612 -507 796 l-34
24 7 70 c3 39 9 80 12 93 l5 22 290 0 290 0 29 29 29 29 0 242 0 242 -29 29
-29 29 -414 0 c-368 -1 -419 -3 -464 -18z m-350 -743 c6 -5 -13 -190 -50 -479
l-59 -470 -93 0 c-106 0 -143 -13 -168 -61 -22 -43 -11 -91 27 -123 l31 -26
743 0 c668 0 743 -2 749 -16 3 -9 6 -60 6 -115 l0 -99 -1340 0 -1340 0 0 99
c0 55 3 106 6 115 5 14 34 16 221 16 233 0 258 5 281 55 20 44 14 82 -17 117
l-29 33 -126 3 -125 4 6 31 c94 497 523 888 1018 926 104 8 246 3 259 -10z
m676 -345 c148 -156 254 -362 293 -571 l7 -33 -237 0 -236 0 6 38 c3 20 23
173 44 340 20 166 40 302 44 302 4 0 39 -34 79 -76z m-873 -1296 c-3 -24 -14
-108 -23 -188 l-17 -146 -61 33 c-257 139 -606 139 -864 -1 -41 -22 -64 -30
-67 -23 -4 14 -45 336 -45 355 0 9 115 12 541 12 l542 0 -6 -42z m1147 -130
c-13 -95 -28 -214 -35 -265 l-11 -92 -52 -40 c-69 -53 -186 -108 -271 -126
-73 -15 -245 -21 -245 -7 -1 15 82 677 85 690 3 9 68 12 278 12 l274 0 -23
-172z"/>
<path d="M1988 3395 c-65 -36 -73 -122 -17 -169 97 -82 226 50 142 144 -34 37
-85 47 -125 25z"/>
</g>
</svg>
